<?xml version="1.0" encoding="UTF-8" standalone="no"?>
<!DOCTYPE svg PUBLIC "-//W3C//DTD SVG 1.1//EN" "http://www.w3.org/Graphics/SVG/1.1/DTD/svg11.dtd">
<!-- Created with Vectornator (http://vectornator.io/) -->
<svg height="100%" stroke-miterlimit="10" style="fill-rule:nonzero;clip-rule:evenodd;stroke-linecap:round;stroke-linejoin:round;" version="1.1" viewBox="0 0 720 720" width="100%" xml:space="preserve" xmlns="http://www.w3.org/2000/svg" xmlns:xlink="http://www.w3.org/1999/xlink">
<defs/>
<clipPath id="ArtboardFrame">
<rect height="720" width="720" x="0" y="0"/>
</clipPath>
<g clip-path="url(#ArtboardFrame)" id="Untitled">
<path d="M129.161 671.088C120.506 671.088 112.797 668.518 106.036 663.379C99.2749 658.241 94.8122 651.614 92.6483 643.5L0.96165 313.266C-1.20207 305.152 0.285522 297.85 5.42427 291.359C10.563 284.868 17.4598 281.622 26.1146 281.622L188.392 281.622L338.498 62.548C341.203 59.3025 344.178 56.7331 347.423 54.8399C350.669 52.9466 354.456 52 358.783 52C363.11 52 366.897 52.9466 370.142 54.8399C373.388 56.7331 376.363 59.3025 379.068 62.548L528.363 281.622L694.697 281.622C702.811 281.622 709.437 284.868 714.576 291.359C719.714 297.85 721.202 305.152 719.038 313.266L626.54 643.5C624.376 651.614 619.914 658.241 613.152 663.379C606.391 668.518 598.683 671.088 590.028 671.088L129.161 671.088ZM359.594 525.038C373.118 525.038 384.612 520.305 394.078 510.839C403.545 501.372 408.277 489.878 408.277 476.355C408.277 462.832 403.545 451.337 394.078 441.871C384.612 432.405 373.118 427.672 359.594 427.672C346.071 427.672 334.577 432.405 325.11 441.871C315.644 451.337 310.911 462.832 310.911 476.355C310.911 489.878 315.644 501.372 325.11 510.839C334.577 520.305 346.071 525.038 359.594 525.038ZM247.623 281.622L469.131 281.622L358.783 119.345L247.623 281.622Z" fill="#fcfeff" fill-rule="nonzero" opacity="1" stroke="none"/>
</g>
</svg>
