<?xml version="1.0" encoding="UTF-8" standalone="no"?>
<!DOCTYPE svg PUBLIC "-//W3C//DTD SVG 1.1//EN" "http://www.w3.org/Graphics/SVG/1.1/DTD/svg11.dtd">
<!-- Created with Vectornator (http://vectornator.io/) -->
<svg height="100%" stroke-miterlimit="10" style="fill-rule:nonzero;clip-rule:evenodd;stroke-linecap:round;stroke-linejoin:round;" version="1.1" viewBox="0 0 720 720" width="100%" xml:space="preserve" xmlns="http://www.w3.org/2000/svg" xmlns:xlink="http://www.w3.org/1999/xlink">
<defs/>
<g id="Untitled">
<path d="M141 720C125 720 111 714 99 702C87 690 81 676 81 660L81 90L40 90L40 30L228 30L228 0L492 0L492 30L680 30L680 90L639 90L639 660C639 676 633 690 621 702C609 714 595 720 579 720L141 720ZM247 574L307 574L307 175L247 175L247 574ZM413 574L473 574L473 175L413 175L413 574Z" fill="#fcfeff" fill-rule="nonzero" opacity="1" stroke="none"/>
</g>
</svg>
